<?xml version="1.0" encoding="utf-8"?>
<svg xmlns="http://www.w3.org/2000/svg" viewBox="0 0 1000 425" fill="none">
<rect y="370" width="1000" height="55" fill="white"/>
<rect y="255" width="1000" height="55" fill="white"/>
<path d="M884.5 155V107L896.619 92.6079L940.925 37.1242H997.743L931.899 116.617H918.669L884.5 155ZM844.211 192.075V0.269531H894.363V96.1723V192.075H844.211ZM942.053 192.075L900.824 127.714L933.848 92.7087L999.999 192.075H942.053Z" fill="white"/>
<path d="M756.973 194.999C740.358 194.999 726.103 191.637 714.206 184.911C702.377 178.186 693.283 168.838 686.925 156.867C680.566 144.829 677.387 130.907 677.387 115.103C677.387 99.2312 680.566 85.3098 686.925 73.3388C693.352 61.3005 702.48 51.9187 714.308 45.1934C726.205 38.4681 740.393 35.1055 756.87 35.1055C771.434 35.1055 784.117 37.6947 794.92 42.8732C805.791 48.0517 814.27 55.3822 820.355 64.8649C826.508 74.2803 829.756 85.3434 830.098 98.0543H783.228C782.271 90.1184 779.536 83.8975 775.024 79.3916C770.579 74.8856 764.768 72.6326 757.588 72.6326C751.777 72.6326 746.683 74.2467 742.307 77.4748C737.931 80.6357 734.512 85.3434 732.051 91.598C729.658 97.7852 728.461 105.452 728.461 114.598C728.461 123.745 729.658 131.479 732.051 137.801C734.512 144.055 737.931 148.797 742.307 152.025C746.683 155.186 751.777 156.766 757.588 156.766C762.238 156.766 766.34 155.791 769.896 153.841C773.519 151.89 776.494 149.032 778.818 145.266C781.143 141.432 782.613 136.792 783.228 131.344H830.098C829.619 144.123 826.372 155.287 820.355 164.836C814.406 174.386 806.031 181.818 795.228 187.131C784.493 192.377 771.742 194.999 756.973 194.999Z" fill="white"/>
<path d="M570.175 194.697C560.125 194.697 551.202 193.049 543.407 189.754C535.681 186.391 529.562 181.347 525.049 174.622C520.605 167.829 518.383 159.322 518.383 149.099C518.383 140.491 519.921 133.228 522.998 127.309C526.075 121.391 530.314 116.582 535.715 112.884C541.117 109.185 547.339 106.394 554.381 104.511C561.424 102.56 568.945 101.249 576.944 100.576C585.901 99.7692 593.115 98.9285 598.584 98.0542C604.054 97.1127 608.02 95.8013 610.481 94.1199C613.011 92.3714 614.276 89.9166 614.276 86.7557V86.2513C614.276 81.0729 612.464 77.0713 608.84 74.2467C605.217 71.4221 600.328 70.0098 594.174 70.0098C587.542 70.0098 582.209 71.4221 578.175 74.2467C574.141 77.0713 571.577 80.972 570.483 85.9487L524.229 84.3346C525.596 74.9192 529.117 66.5126 534.792 59.1148C540.536 51.6497 548.399 45.7987 558.381 41.5617C568.432 37.2576 580.5 35.1055 594.585 35.1055C604.636 35.1055 613.9 36.2824 622.378 38.6362C630.857 40.9228 638.241 44.2855 644.531 48.7242C650.822 53.0956 655.676 58.4759 659.095 64.8649C662.582 71.2539 664.325 78.5509 664.325 86.7557V192.074H617.148V170.486H615.917C613.114 175.731 609.524 180.17 605.148 183.802C600.841 187.433 595.747 190.157 589.867 191.973C584.055 193.789 577.491 194.697 570.175 194.697ZM585.662 162.415C591.063 162.415 595.918 161.339 600.225 159.187C604.601 157.035 608.088 154.076 610.687 150.31C613.285 146.476 614.584 142.038 614.584 136.994V122.265C613.148 123.005 611.404 123.678 609.353 124.283C607.37 124.888 605.182 125.46 602.789 125.998C600.396 126.536 597.935 127.007 595.405 127.41C592.875 127.814 590.448 128.184 588.123 128.52C583.406 129.26 579.372 130.403 576.021 131.95C572.739 133.497 570.21 135.514 568.432 138.002C566.723 140.424 565.868 143.315 565.868 146.678C565.868 151.789 567.714 155.69 571.406 158.38C575.167 161.07 579.919 162.415 585.662 162.415Z" fill="white"/>
<path d="M511.73 37.1236V73.4403H412.35V37.1236H511.73ZM433.169 0H483.321V143.35C483.321 146.376 483.8 148.831 484.757 150.714C485.782 152.53 487.252 153.841 489.167 154.648C491.081 155.388 493.372 155.758 496.038 155.758C497.953 155.758 499.97 155.59 502.089 155.254C504.277 154.85 505.918 154.514 507.012 154.245L514.602 189.855C512.209 190.528 508.824 191.368 504.448 192.377C500.141 193.386 494.979 194.025 488.962 194.294C477.202 194.832 467.116 193.487 458.707 190.259C450.365 186.963 443.972 181.852 439.528 174.925C435.152 167.998 433.032 159.289 433.169 148.797V0Z" fill="white"/>
<path d="M405.774 84.4355L359.725 85.6461C359.246 82.4179 357.947 79.5597 355.828 77.0713C353.708 74.5157 350.939 72.5317 347.52 71.1194C344.17 69.6399 340.273 68.9001 335.828 68.9001C330.017 68.9001 325.06 70.0434 320.957 72.33C316.923 74.6166 314.94 77.7102 315.009 81.6109C314.94 84.6373 316.171 87.2602 318.701 89.4795C321.299 91.6988 325.914 93.4811 332.547 94.8261L362.904 100.475C378.63 103.434 390.322 108.344 397.98 115.204C405.706 122.064 409.603 131.143 409.671 142.441C409.603 153.067 406.39 162.314 400.031 170.183C393.741 178.052 385.125 184.172 374.186 188.543C363.246 192.847 350.734 194.999 336.649 194.999C314.154 194.999 296.411 190.46 283.42 181.381C270.498 172.234 263.114 159.994 261.268 144.661L310.804 143.45C311.898 149.099 314.735 153.403 319.316 156.363C323.897 159.322 329.743 160.801 336.854 160.801C343.281 160.801 348.512 159.624 352.546 157.271C356.58 154.917 358.631 151.789 358.699 147.889C358.631 144.392 357.058 141.601 353.982 139.516C350.905 137.364 346.084 135.682 339.521 134.472L312.035 129.327C296.24 126.502 284.48 121.29 276.754 113.691C269.028 106.024 265.199 96.2721 265.267 84.4355C265.199 74.0786 268.002 65.2348 273.677 57.9042C279.352 50.5064 287.42 44.8571 297.881 40.9565C308.342 37.0558 320.684 35.1055 334.905 35.1055C356.238 35.1055 373.058 39.5105 385.365 48.3207C397.672 57.0636 404.475 69.1018 405.774 84.4355Z" fill="white"/>
<path d="M179.413 194.999C162.936 194.999 148.714 191.805 136.749 185.416C124.852 178.96 115.69 169.78 109.263 157.876C102.904 145.905 99.7246 131.681 99.7246 115.204C99.7246 99.1976 102.938 85.2089 109.365 73.2379C115.792 61.1996 124.852 51.8515 136.544 45.1934C148.235 38.4681 162.013 35.1055 177.875 35.1055C189.088 35.1055 199.344 36.8204 208.643 40.2503C217.942 43.6802 225.976 48.7578 232.745 55.4831C239.513 62.2084 244.778 70.5142 248.539 80.4003C252.299 90.2193 254.179 101.484 254.179 114.195V126.502H117.262V97.8525H207.515C207.446 92.6068 206.182 87.9327 203.72 83.8302C201.259 79.7278 197.874 76.5333 193.567 74.2467C189.328 71.8928 184.439 70.7159 178.901 70.7159C173.294 70.7159 168.269 71.9601 163.824 74.4485C159.38 76.8696 155.859 80.1986 153.261 84.4355C150.663 88.6052 149.295 93.3465 149.158 98.6595V127.814C149.158 134.135 150.423 139.684 152.953 144.459C155.483 149.167 159.072 152.832 163.722 155.455C168.371 158.078 173.909 159.389 180.337 159.389C184.781 159.389 188.815 158.784 192.439 157.573C196.062 156.363 199.173 154.58 201.771 152.227C204.37 149.873 206.318 146.981 207.617 143.551L253.667 144.862C251.752 155.018 247.547 163.861 241.052 171.394C234.625 178.859 226.181 184.676 215.72 188.846C205.259 192.948 193.156 194.999 179.413 194.999Z" fill="white"/>
<path d="M0 192.075V37.1243H48.7158V65.3706H50.3568C53.2285 55.1481 57.912 47.5485 64.4075 42.5718C70.9029 37.5278 78.4581 35.0059 87.0732 35.0059C91.2439 35.0059 95.2096 35.5103 98.9701 36.519C102.731 37.5278 106.115 38.9065 109.123 40.6551L94.3549 81.2086C92.167 80.1326 89.8081 79.2247 87.2783 78.4849C84.8168 77.7451 82.0819 77.3752 79.0735 77.3752C73.8771 77.3752 69.0568 78.653 64.6126 81.2086C60.2367 83.7643 56.7497 87.3287 54.1515 91.9019C51.5533 96.4078 50.2201 101.754 50.1517 107.942V192.075H0Z" fill="white"/>
</svg>