<svg width="1001" height="425" viewBox="0 0 1001 425" fill="none" xmlns="http://www.w3.org/2000/svg">
<rect x="0.0507812" y="370" width="1000" height="55" fill="black"/>
<rect x="340.051" y="255" width="660" height="55" fill="black"/>
<path d="M17.9315 310.923C14.4514 310.923 11.3619 310.343 8.663 309.183C5.98781 308 3.86896 306.224 2.30646 303.857C0.767637 301.465 -0.0017754 298.471 -0.0017754 294.872C-0.0017754 291.842 0.530895 289.285 1.59624 287.202C2.66158 285.118 4.12938 283.426 5.99965 282.124C7.86991 280.821 10.0243 279.839 12.4627 279.176C14.9012 278.49 17.5053 278.028 20.2752 277.791C23.3765 277.507 25.8742 277.211 27.7681 276.903C29.6621 276.572 31.0352 276.11 31.8874 275.518C32.7634 274.903 33.2013 274.039 33.2013 272.926V272.749C33.2013 270.926 32.574 269.517 31.3192 268.523C30.0645 267.528 28.3718 267.031 26.2411 267.031C23.9447 267.031 22.0981 267.528 20.7013 268.523C19.3046 269.517 18.4168 270.89 18.038 272.642L2.02237 272.074C2.49586 268.759 3.71508 265.8 5.68004 263.196C7.66868 260.568 10.3912 258.509 13.8477 257.017C17.3278 255.502 21.5063 254.744 26.3832 254.744C29.8633 254.744 33.0711 255.159 36.0067 255.987C38.9424 256.792 41.4992 257.976 43.6772 259.538C45.8552 261.077 47.5361 262.971 48.7198 265.22C49.9272 267.469 50.5309 270.038 50.5309 272.926V310H34.1957V302.401H33.7695C32.7989 304.247 31.556 305.81 30.0408 307.088C28.5494 308.366 26.7856 309.325 24.7496 309.964C22.7373 310.604 20.4646 310.923 17.9315 310.923ZM23.2937 299.56C25.1639 299.56 26.8448 299.181 28.3363 298.423C29.8514 297.666 31.0588 296.624 31.9585 295.298C32.8581 293.949 33.3079 292.386 33.3079 290.611V285.426C32.8107 285.687 32.207 285.923 31.4968 286.136C30.8103 286.349 30.0527 286.551 29.2241 286.74C28.3955 286.929 27.5432 287.095 26.6673 287.237C25.7913 287.379 24.9509 287.509 24.146 287.628C22.5124 287.888 21.1156 288.291 19.9556 288.835C18.8192 289.38 17.9433 290.09 17.3278 290.966C16.7359 291.818 16.44 292.836 16.44 294.02C16.44 295.819 17.0792 297.192 18.3576 298.139C19.6597 299.086 21.305 299.56 23.2937 299.56ZM81.5749 331.591C76.3903 331.591 71.9513 330.869 68.2582 329.425C64.565 327.981 61.6649 326.004 59.5579 323.494C57.4509 320.985 56.1843 318.144 55.7582 314.972L72.1999 314.048C72.5077 315.161 73.0759 316.132 73.9045 316.96C74.7567 317.789 75.8576 318.428 77.207 318.878C78.5801 319.328 80.19 319.553 82.0366 319.553C84.9485 319.553 87.3514 318.842 89.2454 317.422C91.163 316.025 92.1218 313.575 92.1218 310.071V300.483H91.5181C90.8316 302.164 89.7899 303.667 88.3931 304.993C86.9963 306.319 85.2563 307.36 83.1729 308.118C81.1133 308.875 78.7459 309.254 76.0707 309.254C72.0934 309.254 68.4476 308.331 65.1332 306.484C61.8424 304.614 59.2028 301.726 57.2141 297.82C55.2492 293.89 54.2667 288.835 54.2667 282.656C54.2667 276.288 55.2847 271.044 57.3207 266.925C59.3567 262.782 62.02 259.716 65.3107 257.727C68.6251 255.739 72.1881 254.744 75.9996 254.744C78.8642 254.744 81.3145 255.241 83.3505 256.236C85.4102 257.206 87.1029 258.461 88.4286 260C89.7544 261.539 90.7605 263.137 91.4471 264.794H91.9442V255.455H109.238V310.213C109.238 314.83 108.078 318.724 105.758 321.896C103.438 325.069 100.195 327.472 96.0281 329.105C91.8614 330.762 87.0437 331.591 81.5749 331.591ZM82.1076 296.612C84.2146 296.612 86.0139 296.056 87.5053 294.943C88.9968 293.83 90.145 292.232 90.9499 290.149C91.7549 288.066 92.1573 285.568 92.1573 282.656C92.1573 279.697 91.7549 277.152 90.9499 275.021C90.1687 272.867 89.0205 271.21 87.5053 270.05C86.0139 268.89 84.2146 268.31 82.1076 268.31C79.9532 268.31 78.1303 268.902 76.6388 270.085C75.1474 271.269 74.011 272.938 73.2298 275.092C72.4722 277.223 72.0934 279.744 72.0934 282.656C72.0934 285.568 72.484 288.066 73.2653 290.149C74.0465 292.232 75.171 293.83 76.6388 294.943C78.1303 296.056 79.9532 296.612 82.1076 296.612ZM140.806 311.03C135.101 311.03 130.176 309.905 126.033 307.656C121.914 305.384 118.742 302.152 116.516 297.962C114.315 293.748 113.214 288.741 113.214 282.94C113.214 277.306 114.326 272.382 116.552 268.168C118.777 263.93 121.914 260.639 125.962 258.295C130.011 255.928 134.781 254.744 140.273 254.744C144.156 254.744 147.707 255.348 150.927 256.555C154.147 257.763 156.928 259.55 159.272 261.918C161.616 264.285 163.439 267.209 164.741 270.689C166.043 274.145 166.694 278.111 166.694 282.585V286.918H119.286V276.832H150.536C150.513 274.986 150.075 273.34 149.222 271.896C148.37 270.452 147.198 269.328 145.707 268.523C144.239 267.694 142.546 267.28 140.629 267.28C138.687 267.28 136.947 267.718 135.408 268.594C133.87 269.446 132.65 270.618 131.751 272.109C130.851 273.577 130.378 275.246 130.33 277.116V287.379C130.33 289.605 130.768 291.558 131.644 293.239C132.52 294.896 133.763 296.186 135.373 297.109C136.983 298.033 138.9 298.494 141.126 298.494C142.665 298.494 144.061 298.281 145.316 297.855C146.571 297.429 147.648 296.802 148.548 295.973C149.447 295.144 150.122 294.126 150.572 292.919L166.516 293.381C165.853 296.955 164.397 300.069 162.148 302.72C159.923 305.348 156.999 307.396 153.377 308.864C149.755 310.308 145.565 311.03 140.806 311.03ZM187.928 278.892V310H170.563V255.455H187.076V265.469H187.679C188.887 262.131 190.946 259.515 193.858 257.621C196.77 255.703 200.239 254.744 204.263 254.744C208.098 254.744 211.425 255.608 214.242 257.337C217.083 259.041 219.284 261.432 220.847 264.51C222.433 267.564 223.214 271.139 223.191 275.234V310H205.826V278.643C205.849 275.613 205.08 273.246 203.517 271.541C201.979 269.837 199.836 268.984 197.09 268.984C195.267 268.984 193.657 269.387 192.26 270.192C190.887 270.973 189.822 272.098 189.064 273.565C188.33 275.033 187.952 276.809 187.928 278.892ZM259.73 255.455V268.239H225.32V255.455H259.73ZM232.528 242.386H249.893V292.848C249.893 293.913 250.059 294.777 250.391 295.44C250.746 296.08 251.255 296.541 251.918 296.825C252.58 297.086 253.374 297.216 254.297 297.216C254.96 297.216 255.658 297.157 256.392 297.038C257.15 296.896 257.718 296.778 258.097 296.683L260.724 309.219C259.896 309.455 258.724 309.751 257.209 310.107C255.717 310.462 253.93 310.687 251.847 310.781C247.775 310.971 244.283 310.497 241.371 309.361C238.482 308.201 236.269 306.402 234.73 303.963C233.215 301.525 232.481 298.459 232.528 294.766V242.386ZM310.527 272.109L294.583 272.536C294.417 271.399 293.967 270.393 293.233 269.517C292.499 268.617 291.541 267.919 290.357 267.422C289.197 266.901 287.847 266.641 286.309 266.641C284.296 266.641 282.58 267.043 281.159 267.848C279.763 268.653 279.076 269.742 279.1 271.115C279.076 272.18 279.502 273.104 280.378 273.885C281.278 274.666 282.876 275.294 285.172 275.767L295.684 277.756C301.129 278.797 305.177 280.526 307.828 282.94C310.504 285.355 311.853 288.551 311.877 292.528C311.853 296.269 310.74 299.524 308.539 302.294C306.361 305.064 303.378 307.218 299.59 308.757C295.802 310.272 291.47 311.03 286.593 311.03C278.804 311.03 272.66 309.432 268.162 306.236C263.688 303.016 261.131 298.707 260.492 293.31L277.644 292.884C278.023 294.872 279.005 296.387 280.591 297.429C282.177 298.471 284.202 298.991 286.664 298.991C288.889 298.991 290.7 298.577 292.097 297.749C293.494 296.92 294.204 295.819 294.228 294.446C294.204 293.215 293.659 292.232 292.594 291.499C291.529 290.741 289.86 290.149 287.587 289.723L278.07 287.912C272.601 286.918 268.529 285.083 265.854 282.408C263.179 279.709 261.853 276.276 261.877 272.109C261.853 268.464 262.824 265.35 264.789 262.77C266.754 260.166 269.547 258.177 273.169 256.804C276.792 255.431 281.065 254.744 285.989 254.744C293.375 254.744 299.199 256.295 303.461 259.396C307.722 262.474 310.078 266.712 310.527 272.109Z" fill="black"/>
<path d="M884.551 155V107L896.67 92.6079L940.975 37.1242H997.794L931.95 116.617H918.72L884.551 155ZM844.262 192.075V0.269531H894.413V96.1723V192.075H844.262ZM942.104 192.075L900.875 127.714L933.899 92.7087L1000.05 192.075H942.104Z" fill="black"/>
<path d="M757.024 194.999C740.409 194.999 726.153 191.637 714.256 184.911C702.428 178.186 693.334 168.838 686.976 156.867C680.617 144.829 677.438 130.907 677.438 115.103C677.438 99.2312 680.617 85.3098 686.976 73.3388C693.403 61.3005 702.53 51.9187 714.359 45.1934C726.256 38.4681 740.443 35.1055 756.921 35.1055C771.485 35.1055 784.168 37.6947 794.971 42.8732C805.842 48.0517 814.32 55.3822 820.406 64.8649C826.559 74.2803 829.807 85.3434 830.149 98.0543H783.279C782.322 90.1184 779.587 83.8975 775.074 79.3916C770.63 74.8856 764.818 72.6326 757.639 72.6326C751.827 72.6326 746.734 74.2467 742.358 77.4748C737.982 80.6357 734.563 85.3434 732.102 91.598C729.709 97.7852 728.512 105.452 728.512 114.598C728.512 123.745 729.709 131.479 732.102 137.801C734.563 144.055 737.982 148.797 742.358 152.025C746.734 155.186 751.827 156.766 757.639 156.766C762.289 156.766 766.391 155.791 769.946 153.841C773.57 151.89 776.544 149.032 778.869 145.266C781.194 141.432 782.664 136.792 783.279 131.344H830.149C829.67 144.123 826.423 155.287 820.406 164.836C814.457 174.386 806.082 181.818 795.279 187.131C784.544 192.377 771.792 194.999 757.024 194.999Z" fill="black"/>
<path d="M570.226 194.697C560.175 194.697 551.253 193.049 543.458 189.754C535.732 186.391 529.613 181.347 525.1 174.622C520.656 167.829 518.434 159.322 518.434 149.099C518.434 140.491 519.972 133.228 523.049 127.309C526.126 121.391 530.365 116.582 535.766 112.884C541.168 109.185 547.39 106.394 554.432 104.511C561.474 102.56 568.995 101.249 576.995 100.576C585.952 99.7692 593.165 98.9285 598.635 98.0542C604.105 97.1127 608.071 95.8013 610.532 94.1199C613.062 92.3714 614.327 89.9166 614.327 86.7557V86.2513C614.327 81.0729 612.515 77.0713 608.891 74.2467C605.267 71.4221 600.379 70.0098 594.225 70.0098C587.593 70.0098 582.26 71.4221 578.226 74.2467C574.192 77.0713 571.628 80.972 570.534 85.9487L524.279 84.3346C525.647 74.9192 529.168 66.5126 534.843 59.1148C540.586 51.6497 548.449 45.7987 558.432 41.5617C568.483 37.2576 580.551 35.1055 594.635 35.1055C604.686 35.1055 613.951 36.2824 622.429 38.6362C630.907 40.9228 638.292 44.2855 644.582 48.7242C650.872 53.0956 655.727 58.4759 659.145 64.8649C662.632 71.2539 664.376 78.5509 664.376 86.7557V192.074H617.199V170.486H615.968C613.165 175.731 609.575 180.17 605.199 183.802C600.892 187.433 595.798 190.157 589.918 191.973C584.106 193.789 577.542 194.697 570.226 194.697ZM585.713 162.415C591.114 162.415 595.969 161.339 600.276 159.187C604.652 157.035 608.139 154.076 610.737 150.31C613.335 146.476 614.635 142.038 614.635 136.994V122.265C613.199 123.005 611.455 123.678 609.404 124.283C607.421 124.888 605.233 125.46 602.84 125.998C600.447 126.536 597.986 127.007 595.456 127.41C592.926 127.814 590.499 128.184 588.174 128.52C583.456 129.26 579.422 130.403 576.072 131.95C572.79 133.497 570.26 135.514 568.483 138.002C566.773 140.424 565.919 143.315 565.919 146.678C565.919 151.789 567.765 155.69 571.457 158.38C575.217 161.07 579.969 162.415 585.713 162.415Z" fill="black"/>
<path d="M511.783 37.1236V73.4403H412.402V37.1236H511.783ZM433.222 0H483.374V143.35C483.374 146.376 483.852 148.831 484.809 150.714C485.835 152.53 487.305 153.841 489.22 154.648C491.134 155.388 493.424 155.758 496.091 155.758C498.005 155.758 500.023 155.59 502.142 155.254C504.33 154.85 505.971 154.514 507.065 154.245L514.654 189.855C512.261 190.528 508.877 191.368 504.501 192.377C500.193 193.386 495.031 194.025 489.014 194.294C477.254 194.832 467.169 193.487 458.759 190.259C450.418 186.963 444.025 181.852 439.581 174.925C435.205 167.998 433.085 159.289 433.222 148.797V0Z" fill="black"/>
<path d="M405.823 84.4355L359.774 85.6461C359.295 82.4179 357.996 79.5597 355.876 77.0713C353.757 74.5157 350.988 72.5317 347.569 71.1194C344.219 69.6399 340.322 68.9001 335.877 68.9001C330.066 68.9001 325.109 70.0434 321.006 72.33C316.972 74.6166 314.989 77.7102 315.058 81.6109C314.989 84.6373 316.22 87.2602 318.75 89.4795C321.348 91.6988 325.963 93.4811 332.595 94.8261L362.953 100.475C378.679 103.434 390.371 108.344 398.028 115.204C405.755 122.064 409.652 131.143 409.72 142.441C409.652 153.067 406.438 162.314 400.08 170.183C393.789 178.052 385.174 184.172 374.235 188.543C363.295 192.847 350.783 194.999 336.698 194.999C314.203 194.999 296.46 190.46 283.469 181.381C270.547 172.234 263.162 159.994 261.316 144.661L310.853 143.45C311.947 149.099 314.784 153.403 319.365 156.363C323.946 159.322 329.792 160.801 336.903 160.801C343.33 160.801 348.561 159.624 352.595 157.271C356.629 154.917 358.68 151.789 358.748 147.889C358.68 144.392 357.107 141.601 354.03 139.516C350.954 137.364 346.133 135.682 339.569 134.472L312.083 129.327C296.289 126.502 284.529 121.29 276.803 113.691C269.077 106.024 265.248 96.2721 265.316 84.4355C265.248 74.0786 268.051 65.2348 273.726 57.9042C279.401 50.5064 287.469 44.8571 297.93 40.9565C308.391 37.0558 320.733 35.1055 334.954 35.1055C356.287 35.1055 373.106 39.5105 385.414 48.3207C397.721 57.0636 404.524 69.1018 405.823 84.4355Z" fill="black"/>
<path d="M179.466 194.999C162.988 194.999 148.767 191.805 136.801 185.416C124.904 178.96 115.742 169.78 109.315 157.876C102.957 145.905 99.7773 131.681 99.7773 115.204C99.7773 99.1976 102.991 85.2089 109.418 73.2379C115.845 61.1996 124.904 51.8515 136.596 45.1934C148.288 38.4681 162.065 35.1055 177.928 35.1055C189.141 35.1055 199.397 36.8204 208.696 40.2503C217.994 43.6802 226.028 48.7578 232.797 55.4831C239.566 62.2084 244.831 70.5142 248.591 80.4003C252.352 90.2193 254.232 101.484 254.232 114.195V126.502H117.315V97.8525H207.568C207.499 92.6068 206.234 87.9327 203.773 83.8302C201.311 79.7278 197.927 76.5333 193.619 74.2467C189.38 71.8928 184.492 70.7159 178.953 70.7159C173.347 70.7159 168.321 71.9601 163.877 74.4485C159.433 76.8696 155.912 80.1986 153.313 84.4355C150.715 88.6052 149.348 93.3465 149.211 98.6595V127.814C149.211 134.135 150.476 139.684 153.006 144.459C155.536 149.167 159.125 152.832 163.775 155.455C168.424 158.078 173.962 159.389 180.389 159.389C184.833 159.389 188.868 158.784 192.491 157.573C196.115 156.363 199.226 154.58 201.824 152.227C204.422 149.873 206.371 146.981 207.67 143.551L253.719 144.862C251.805 155.018 247.6 163.861 241.105 171.394C234.677 178.859 226.233 184.676 215.772 188.846C205.311 192.948 193.209 194.999 179.466 194.999Z" fill="black"/>
<path d="M0.0507812 192.075V37.1243H48.7666V65.3706H50.4076C53.2792 55.1481 57.9628 47.5485 64.4583 42.5718C70.9537 37.5278 78.5089 35.0059 87.1239 35.0059C91.2947 35.0059 95.2603 35.5103 99.0209 36.519C102.781 37.5278 106.166 38.9065 109.174 40.6551L94.4057 81.2086C92.2177 80.1326 89.8589 79.2247 87.3291 78.4849C84.8676 77.7451 82.1327 77.3752 79.1243 77.3752C73.9279 77.3752 69.1076 78.653 64.6634 81.2086C60.2875 83.7643 56.8005 87.3287 54.2023 91.9019C51.6041 96.4078 50.2708 101.754 50.2025 107.942V192.075H0.0507812Z" fill="black"/>
<path d="M884.551 155V107L896.67 92.6079L940.975 37.1242H997.794L931.95 116.617H918.72L884.551 155ZM844.262 192.075V0.269531H894.413V96.1723V192.075H844.262ZM942.104 192.075L900.875 127.714L933.899 92.7087L1000.05 192.075H942.104Z" fill="black"/>
<path d="M757.024 194.999C740.409 194.999 726.153 191.637 714.256 184.911C702.428 178.186 693.334 168.838 686.976 156.867C680.617 144.829 677.438 130.907 677.438 115.103C677.438 99.2312 680.617 85.3098 686.976 73.3388C693.403 61.3005 702.53 51.9187 714.359 45.1934C726.256 38.4681 740.443 35.1055 756.921 35.1055C771.485 35.1055 784.168 37.6947 794.971 42.8732C805.842 48.0517 814.32 55.3822 820.406 64.8649C826.559 74.2803 829.807 85.3434 830.149 98.0543H783.279C782.322 90.1184 779.587 83.8975 775.074 79.3916C770.63 74.8856 764.818 72.6326 757.639 72.6326C751.827 72.6326 746.734 74.2467 742.358 77.4748C737.982 80.6357 734.563 85.3434 732.102 91.598C729.709 97.7852 728.512 105.452 728.512 114.598C728.512 123.745 729.709 131.479 732.102 137.801C734.563 144.055 737.982 148.797 742.358 152.025C746.734 155.186 751.827 156.766 757.639 156.766C762.289 156.766 766.391 155.791 769.946 153.841C773.57 151.89 776.544 149.032 778.869 145.266C781.194 141.432 782.664 136.792 783.279 131.344H830.149C829.67 144.123 826.423 155.287 820.406 164.836C814.457 174.386 806.082 181.818 795.279 187.131C784.544 192.377 771.792 194.999 757.024 194.999Z" fill="black"/>
<path d="M570.226 194.697C560.175 194.697 551.253 193.049 543.458 189.754C535.732 186.391 529.613 181.347 525.1 174.622C520.656 167.829 518.434 159.322 518.434 149.099C518.434 140.491 519.972 133.228 523.049 127.309C526.126 121.391 530.365 116.582 535.766 112.884C541.168 109.185 547.39 106.394 554.432 104.511C561.474 102.56 568.995 101.249 576.995 100.576C585.952 99.7692 593.165 98.9285 598.635 98.0542C604.105 97.1127 608.071 95.8013 610.532 94.1199C613.062 92.3714 614.327 89.9166 614.327 86.7557V86.2513C614.327 81.0729 612.515 77.0713 608.891 74.2467C605.267 71.4221 600.379 70.0098 594.225 70.0098C587.593 70.0098 582.26 71.4221 578.226 74.2467C574.192 77.0713 571.628 80.972 570.534 85.9487L524.279 84.3346C525.647 74.9192 529.168 66.5126 534.843 59.1148C540.586 51.6497 548.449 45.7987 558.432 41.5617C568.483 37.2576 580.551 35.1055 594.635 35.1055C604.686 35.1055 613.951 36.2824 622.429 38.6362C630.907 40.9228 638.292 44.2855 644.582 48.7242C650.872 53.0956 655.727 58.4759 659.145 64.8649C662.632 71.2539 664.376 78.5509 664.376 86.7557V192.074H617.199V170.486H615.968C613.165 175.731 609.575 180.17 605.199 183.802C600.892 187.433 595.798 190.157 589.918 191.973C584.106 193.789 577.542 194.697 570.226 194.697ZM585.713 162.415C591.114 162.415 595.969 161.339 600.276 159.187C604.652 157.035 608.139 154.076 610.737 150.31C613.335 146.476 614.635 142.038 614.635 136.994V122.265C613.199 123.005 611.455 123.678 609.404 124.283C607.421 124.888 605.233 125.46 602.84 125.998C600.447 126.536 597.986 127.007 595.456 127.41C592.926 127.814 590.499 128.184 588.174 128.52C583.456 129.26 579.422 130.403 576.072 131.95C572.79 133.497 570.26 135.514 568.483 138.002C566.773 140.424 565.919 143.315 565.919 146.678C565.919 151.789 567.765 155.69 571.457 158.38C575.217 161.07 579.969 162.415 585.713 162.415Z" fill="black"/>
<path d="M511.783 37.1236V73.4403H412.402V37.1236H511.783ZM433.222 0H483.374V143.35C483.374 146.376 483.852 148.831 484.809 150.714C485.835 152.53 487.305 153.841 489.22 154.648C491.134 155.388 493.424 155.758 496.091 155.758C498.005 155.758 500.023 155.59 502.142 155.254C504.33 154.85 505.971 154.514 507.065 154.245L514.654 189.855C512.261 190.528 508.877 191.368 504.501 192.377C500.193 193.386 495.031 194.025 489.014 194.294C477.254 194.832 467.169 193.487 458.759 190.259C450.418 186.963 444.025 181.852 439.581 174.925C435.205 167.998 433.085 159.289 433.222 148.797V0Z" fill="black"/>
<path d="M405.823 84.4355L359.774 85.6461C359.295 82.4179 357.996 79.5597 355.876 77.0713C353.757 74.5157 350.988 72.5317 347.569 71.1194C344.219 69.6399 340.322 68.9001 335.877 68.9001C330.066 68.9001 325.109 70.0434 321.006 72.33C316.972 74.6166 314.989 77.7102 315.058 81.6109C314.989 84.6373 316.22 87.2602 318.75 89.4795C321.348 91.6988 325.963 93.4811 332.595 94.8261L362.953 100.475C378.679 103.434 390.371 108.344 398.028 115.204C405.755 122.064 409.652 131.143 409.72 142.441C409.652 153.067 406.438 162.314 400.08 170.183C393.789 178.052 385.174 184.172 374.235 188.543C363.295 192.847 350.783 194.999 336.698 194.999C314.203 194.999 296.46 190.46 283.469 181.381C270.547 172.234 263.162 159.994 261.316 144.661L310.853 143.45C311.947 149.099 314.784 153.403 319.365 156.363C323.946 159.322 329.792 160.801 336.903 160.801C343.33 160.801 348.561 159.624 352.595 157.271C356.629 154.917 358.68 151.789 358.748 147.889C358.68 144.392 357.107 141.601 354.03 139.516C350.954 137.364 346.133 135.682 339.569 134.472L312.083 129.327C296.289 126.502 284.529 121.29 276.803 113.691C269.077 106.024 265.248 96.2721 265.316 84.4355C265.248 74.0786 268.051 65.2348 273.726 57.9042C279.401 50.5064 287.469 44.8571 297.93 40.9565C308.391 37.0558 320.733 35.1055 334.954 35.1055C356.287 35.1055 373.106 39.5105 385.414 48.3207C397.721 57.0636 404.524 69.1018 405.823 84.4355Z" fill="black"/>
<path d="M179.466 194.999C162.988 194.999 148.767 191.805 136.801 185.416C124.904 178.96 115.742 169.78 109.315 157.876C102.957 145.905 99.7773 131.681 99.7773 115.204C99.7773 99.1976 102.991 85.2089 109.418 73.2379C115.845 61.1996 124.904 51.8515 136.596 45.1934C148.288 38.4681 162.065 35.1055 177.928 35.1055C189.141 35.1055 199.397 36.8204 208.696 40.2503C217.994 43.6802 226.028 48.7578 232.797 55.4831C239.566 62.2084 244.831 70.5142 248.591 80.4003C252.352 90.2193 254.232 101.484 254.232 114.195V126.502H117.315V97.8525H207.568C207.499 92.6068 206.234 87.9327 203.773 83.8302C201.311 79.7278 197.927 76.5333 193.619 74.2467C189.38 71.8928 184.492 70.7159 178.953 70.7159C173.347 70.7159 168.321 71.9601 163.877 74.4485C159.433 76.8696 155.912 80.1986 153.313 84.4355C150.715 88.6052 149.348 93.3465 149.211 98.6595V127.814C149.211 134.135 150.476 139.684 153.006 144.459C155.536 149.167 159.125 152.832 163.775 155.455C168.424 158.078 173.962 159.389 180.389 159.389C184.833 159.389 188.868 158.784 192.491 157.573C196.115 156.363 199.226 154.58 201.824 152.227C204.422 149.873 206.371 146.981 207.67 143.551L253.719 144.862C251.805 155.018 247.6 163.861 241.105 171.394C234.677 178.859 226.233 184.676 215.772 188.846C205.311 192.948 193.209 194.999 179.466 194.999Z" fill="black"/>
<path d="M0.0507812 192.075V37.1243H48.7666V65.3706H50.4076C53.2792 55.1481 57.9628 47.5485 64.4583 42.5718C70.9537 37.5278 78.5089 35.0059 87.1239 35.0059C91.2947 35.0059 95.2603 35.5103 99.0209 36.519C102.781 37.5278 106.166 38.9065 109.174 40.6551L94.4057 81.2086C92.2177 80.1326 89.8589 79.2247 87.3291 78.4849C84.8676 77.7451 82.1327 77.3752 79.1243 77.3752C73.9279 77.3752 69.1076 78.653 64.6634 81.2086C60.2875 83.7643 56.8005 87.3287 54.2023 91.9019C51.6041 96.4078 50.2708 101.754 50.2025 107.942V192.075H0.0507812Z" fill="black"/>
</svg>
