<svg width="1003" height="425" viewBox="0 0 1003 425" fill="none" xmlns="http://www.w3.org/2000/svg">
<rect x="3" y="370" width="1000" height="55" fill="white"/>
<rect x="521" y="255" width="482" height="55" fill="white"/>
<path d="M5.50426 310V237.273H22.8693V264.794H23.2244C23.9347 263.137 24.9408 261.539 26.2429 260C27.5687 258.461 29.2495 257.206 31.2855 256.236C33.3452 255.241 35.8073 254.744 38.6719 254.744C42.4598 254.744 45.9991 255.739 49.2898 257.727C52.6042 259.716 55.2794 262.782 57.3153 266.925C59.3513 271.068 60.3693 276.347 60.3693 282.763C60.3693 288.942 59.3868 294.115 57.4219 298.281C55.4806 302.448 52.8527 305.573 49.5384 307.656C46.2476 309.74 42.59 310.781 38.5653 310.781C35.8191 310.781 33.4399 310.331 31.4276 309.432C29.4152 308.532 27.7225 307.348 26.3494 305.881C25 304.413 23.9583 302.839 23.2244 301.158H22.6918V310H5.50426ZM22.5142 282.727C22.5142 285.663 22.9048 288.22 23.6861 290.398C24.491 292.576 25.6392 294.268 27.1307 295.476C28.6458 296.66 30.4569 297.251 32.5639 297.251C34.6946 297.251 36.5057 296.66 37.9972 295.476C39.4886 294.268 40.6132 292.576 41.3707 290.398C42.152 288.22 42.5426 285.663 42.5426 282.727C42.5426 279.792 42.152 277.247 41.3707 275.092C40.6132 272.938 39.4886 271.269 37.9972 270.085C36.5294 268.902 34.7183 268.31 32.5639 268.31C30.4332 268.31 28.6222 268.89 27.1307 270.05C25.6392 271.21 24.491 272.867 23.6861 275.021C22.9048 277.176 22.5142 279.744 22.5142 282.727ZM89.9308 311.03C84.2016 311.03 79.2773 309.858 75.158 307.514C71.0624 305.147 67.9019 301.856 65.6765 297.642C63.4748 293.404 62.3739 288.492 62.3739 282.905C62.3739 277.294 63.4748 272.382 65.6765 268.168C67.9019 263.93 71.0624 260.639 75.158 258.295C79.2773 255.928 84.2016 254.744 89.9308 254.744C95.6599 254.744 100.572 255.928 104.668 258.295C108.787 260.639 111.948 263.93 114.15 268.168C116.375 272.382 117.488 277.294 117.488 282.905C117.488 288.492 116.375 293.404 114.15 297.642C111.948 301.856 108.787 305.147 104.668 307.514C100.572 309.858 95.6599 311.03 89.9308 311.03ZM90.0373 297.926C92.1206 297.926 93.8844 297.287 95.3285 296.009C96.7726 294.73 97.8735 292.955 98.631 290.682C99.4123 288.409 99.8029 285.781 99.8029 282.798C99.8029 279.768 99.4123 277.116 98.631 274.844C97.8735 272.571 96.7726 270.795 95.3285 269.517C93.8844 268.239 92.1206 267.599 90.0373 267.599C87.8829 267.599 86.06 268.239 84.5685 269.517C83.1007 270.795 81.9762 272.571 81.195 274.844C80.4374 277.116 80.0586 279.768 80.0586 282.798C80.0586 285.781 80.4374 288.409 81.195 290.682C81.9762 292.955 83.1007 294.73 84.5685 296.009C86.06 297.287 87.8829 297.926 90.0373 297.926ZM121.383 310V255.455H138.748V310H121.383ZM130.083 249.098C127.645 249.098 125.55 248.293 123.798 246.683C122.046 245.05 121.17 243.085 121.17 240.788C121.17 238.516 122.046 236.574 123.798 234.964C125.55 233.331 127.645 232.514 130.083 232.514C132.546 232.514 134.641 233.331 136.369 234.964C138.121 236.574 138.997 238.516 138.997 240.788C138.997 243.085 138.121 245.05 136.369 246.683C134.641 248.293 132.546 249.098 130.083 249.098ZM162.166 237.273V310H144.801V237.273H162.166ZM193.716 311.03C188.011 311.03 183.087 309.905 178.944 307.656C174.824 305.384 171.652 302.152 169.426 297.962C167.225 293.748 166.124 288.741 166.124 282.94C166.124 277.306 167.237 272.382 169.462 268.168C171.687 263.93 174.824 260.639 178.873 258.295C182.921 255.928 187.691 254.744 193.184 254.744C197.066 254.744 200.617 255.348 203.837 256.555C207.057 257.763 209.838 259.55 212.182 261.918C214.526 264.285 216.349 267.209 217.651 270.689C218.953 274.145 219.604 278.111 219.604 282.585V286.918H172.196V276.832H203.446C203.423 274.986 202.985 273.34 202.132 271.896C201.28 270.452 200.108 269.328 198.617 268.523C197.149 267.694 195.456 267.28 193.539 267.28C191.597 267.28 189.857 267.718 188.319 268.594C186.78 269.446 185.56 270.618 184.661 272.109C183.761 273.577 183.288 275.246 183.24 277.116V287.379C183.24 289.605 183.678 291.558 184.554 293.239C185.43 294.896 186.673 296.186 188.283 297.109C189.893 298.033 191.81 298.494 194.036 298.494C195.575 298.494 196.971 298.281 198.226 297.855C199.481 297.429 200.558 296.802 201.458 295.973C202.357 295.144 203.032 294.126 203.482 292.919L219.426 293.381C218.764 296.955 217.308 300.069 215.059 302.72C212.833 305.348 209.909 307.396 206.287 308.864C202.665 310.308 198.475 311.03 193.716 311.03ZM223.473 310V255.455H240.341V265.398H240.909C241.903 261.799 243.525 259.124 245.774 257.372C248.023 255.597 250.639 254.709 253.622 254.709C254.427 254.709 255.256 254.768 256.108 254.886C256.96 254.981 257.753 255.135 258.487 255.348V270.44C257.659 270.156 256.57 269.931 255.22 269.766C253.894 269.6 252.711 269.517 251.669 269.517C249.609 269.517 247.751 269.979 246.094 270.902C244.46 271.802 243.17 273.068 242.223 274.702C241.3 276.312 240.838 278.205 240.838 280.384V310H223.473ZM260.563 330.455V255.455H277.75V264.794H278.283C278.993 263.137 279.999 261.539 281.301 260C282.627 258.461 284.308 257.206 286.344 256.236C288.404 255.241 290.866 254.744 293.73 254.744C297.518 254.744 301.058 255.739 304.348 257.727C307.663 259.716 310.338 262.782 312.374 266.925C314.41 271.068 315.428 276.347 315.428 282.763C315.428 288.942 314.445 294.115 312.48 298.281C310.539 302.448 307.911 305.573 304.597 307.656C301.306 309.74 297.649 310.781 293.624 310.781C290.878 310.781 288.498 310.331 286.486 309.432C284.474 308.532 282.781 307.348 281.408 305.881C280.059 304.413 279.017 302.839 278.283 301.158H277.928V330.455H260.563ZM277.573 282.727C277.573 285.663 277.963 288.22 278.745 290.398C279.55 292.576 280.698 294.268 282.189 295.476C283.704 296.66 285.516 297.251 287.623 297.251C289.753 297.251 291.564 296.66 293.056 295.476C294.547 294.268 295.672 292.576 296.429 290.398C297.211 288.22 297.601 285.663 297.601 282.727C297.601 279.792 297.211 277.247 296.429 275.092C295.672 272.938 294.547 271.269 293.056 270.085C291.588 268.902 289.777 268.31 287.623 268.31C285.492 268.31 283.681 268.89 282.189 270.05C280.698 271.21 279.55 272.867 278.745 275.021C277.963 277.176 277.573 279.744 277.573 282.727ZM336.893 237.273V310H319.528V237.273H336.893ZM358.322 310.923C354.842 310.923 351.752 310.343 349.054 309.183C346.378 308 344.26 306.224 342.697 303.857C341.158 301.465 340.389 298.471 340.389 294.872C340.389 291.842 340.922 289.285 341.987 287.202C343.052 285.118 344.52 283.426 346.39 282.124C348.261 280.821 350.415 279.839 352.853 279.176C355.292 278.49 357.896 278.028 360.666 277.791C363.767 277.507 366.265 277.211 368.159 276.903C370.053 276.572 371.426 276.11 372.278 275.518C373.154 274.903 373.592 274.039 373.592 272.926V272.749C373.592 270.926 372.965 269.517 371.71 268.523C370.455 267.528 368.762 267.031 366.632 267.031C364.335 267.031 362.489 267.528 361.092 268.523C359.695 269.517 358.807 270.89 358.429 272.642L342.413 272.074C342.886 268.759 344.106 265.8 346.071 263.196C348.059 260.568 350.782 258.509 354.238 257.017C357.718 255.502 361.897 254.744 366.774 254.744C370.254 254.744 373.462 255.159 376.397 255.987C379.333 256.792 381.89 257.976 384.068 259.538C386.246 261.077 387.927 262.971 389.11 265.22C390.318 267.469 390.922 270.038 390.922 272.926V310H374.586V302.401H374.16C373.19 304.247 371.947 305.81 370.431 307.088C368.94 308.366 367.176 309.325 365.14 309.964C363.128 310.604 360.855 310.923 358.322 310.923ZM363.684 299.56C365.555 299.56 367.235 299.181 368.727 298.423C370.242 297.666 371.449 296.624 372.349 295.298C373.249 293.949 373.699 292.386 373.699 290.611V285.426C373.201 285.687 372.598 285.923 371.887 286.136C371.201 286.349 370.443 286.551 369.615 286.74C368.786 286.929 367.934 287.095 367.058 287.237C366.182 287.379 365.342 287.509 364.537 287.628C362.903 287.888 361.506 288.291 360.346 288.835C359.21 289.38 358.334 290.09 357.718 290.966C357.127 291.818 356.831 292.836 356.831 294.02C356.831 295.819 357.47 297.192 358.748 298.139C360.05 299.086 361.696 299.56 363.684 299.56ZM427.328 255.455V268.239H392.917V255.455H427.328ZM400.126 242.386H417.491V292.848C417.491 293.913 417.657 294.777 417.988 295.44C418.343 296.08 418.852 296.541 419.515 296.825C420.178 297.086 420.971 297.216 421.895 297.216C422.557 297.216 423.256 297.157 423.99 297.038C424.747 296.896 425.315 296.778 425.694 296.683L428.322 309.219C427.493 309.455 426.322 309.751 424.806 310.107C423.315 310.462 421.528 310.687 419.444 310.781C415.372 310.971 411.88 310.497 408.968 309.361C406.08 308.201 403.867 306.402 402.328 303.963C400.813 301.525 400.079 298.459 400.126 294.766V242.386ZM456.099 311.03C450.394 311.03 445.469 309.905 441.326 307.656C437.207 305.384 434.035 302.152 431.809 297.962C429.608 293.748 428.507 288.741 428.507 282.94C428.507 277.306 429.619 272.382 431.845 268.168C434.07 263.93 437.207 260.639 441.255 258.295C445.304 255.928 450.074 254.744 455.566 254.744C459.449 254.744 463 255.348 466.22 256.555C469.44 257.763 472.221 259.55 474.565 261.918C476.909 264.285 478.732 267.209 480.034 270.689C481.336 274.145 481.987 278.111 481.987 282.585V286.918H434.579V276.832H465.829C465.806 274.986 465.368 273.34 464.515 271.896C463.663 270.452 462.491 269.328 461 268.523C459.532 267.694 457.839 267.28 455.922 267.28C453.98 267.28 452.24 267.718 450.701 268.594C449.163 269.446 447.943 270.618 447.044 272.109C446.144 273.577 445.671 275.246 445.623 277.116V287.379C445.623 289.605 446.061 291.558 446.937 293.239C447.813 294.896 449.056 296.186 450.666 297.109C452.276 298.033 454.193 298.494 456.419 298.494C457.958 298.494 459.354 298.281 460.609 297.855C461.864 297.429 462.941 296.802 463.841 295.973C464.74 295.144 465.415 294.126 465.865 292.919L481.809 293.381C481.146 296.955 479.69 300.069 477.441 302.72C475.216 305.348 472.292 307.396 468.67 308.864C465.048 310.308 460.858 311.03 456.099 311.03Z" fill="white"/>
<path d="M887.5 155V107L899.619 92.6079L943.925 37.1242H1000.74L934.899 116.617H921.669L887.5 155ZM847.211 192.075V0.269531H897.363V96.1723V192.075H847.211ZM945.053 192.075L903.824 127.714L936.848 92.7087L1003 192.075H945.053Z" fill="white"/>
<path d="M759.973 194.999C743.358 194.999 729.103 191.637 717.206 184.911C705.377 178.186 696.283 168.838 689.925 156.867C683.566 144.829 680.387 130.907 680.387 115.103C680.387 99.2312 683.566 85.3098 689.925 73.3388C696.352 61.3005 705.48 51.9187 717.308 45.1934C729.205 38.4681 743.393 35.1055 759.87 35.1055C774.434 35.1055 787.117 37.6947 797.92 42.8732C808.791 48.0517 817.27 55.3822 823.355 64.8649C829.508 74.2803 832.756 85.3434 833.098 98.0543H786.228C785.271 90.1184 782.536 83.8975 778.024 79.3916C773.579 74.8856 767.768 72.6326 760.588 72.6326C754.777 72.6326 749.683 74.2467 745.307 77.4748C740.931 80.6357 737.512 85.3434 735.051 91.598C732.658 97.7852 731.461 105.452 731.461 114.598C731.461 123.745 732.658 131.479 735.051 137.801C737.512 144.055 740.931 148.797 745.307 152.025C749.683 155.186 754.777 156.766 760.588 156.766C765.238 156.766 769.34 155.791 772.896 153.841C776.519 151.89 779.494 149.032 781.818 145.266C784.143 141.432 785.613 136.792 786.228 131.344H833.098C832.619 144.123 829.372 155.287 823.355 164.836C817.406 174.386 809.031 181.818 798.228 187.131C787.493 192.377 774.742 194.999 759.973 194.999Z" fill="white"/>
<path d="M573.175 194.697C563.125 194.697 554.202 193.049 546.407 189.754C538.681 186.391 532.562 181.347 528.049 174.622C523.605 167.829 521.383 159.322 521.383 149.099C521.383 140.491 522.921 133.228 525.998 127.309C529.075 121.391 533.314 116.582 538.715 112.884C544.117 109.185 550.339 106.394 557.381 104.511C564.424 102.56 571.945 101.249 579.944 100.576C588.901 99.7692 596.115 98.9285 601.584 98.0542C607.054 97.1127 611.02 95.8013 613.481 94.1199C616.011 92.3714 617.276 89.9166 617.276 86.7557V86.2513C617.276 81.0729 615.464 77.0713 611.84 74.2467C608.217 71.4221 603.328 70.0098 597.174 70.0098C590.542 70.0098 585.209 71.4221 581.175 74.2467C577.141 77.0713 574.577 80.972 573.483 85.9487L527.229 84.3346C528.596 74.9192 532.117 66.5126 537.792 59.1148C543.536 51.6497 551.399 45.7987 561.381 41.5617C571.432 37.2576 583.5 35.1055 597.585 35.1055C607.636 35.1055 616.9 36.2824 625.378 38.6362C633.857 40.9228 641.241 44.2855 647.531 48.7242C653.822 53.0956 658.676 58.4759 662.095 64.8649C665.582 71.2539 667.325 78.5509 667.325 86.7557V192.074H620.148V170.486H618.917C616.114 175.731 612.524 180.17 608.148 183.802C603.841 187.433 598.747 190.157 592.867 191.973C587.055 193.789 580.491 194.697 573.175 194.697ZM588.662 162.415C594.063 162.415 598.918 161.339 603.225 159.187C607.601 157.035 611.088 154.076 613.687 150.31C616.285 146.476 617.584 142.038 617.584 136.994V122.265C616.148 123.005 614.404 123.678 612.353 124.283C610.37 124.888 608.182 125.46 605.789 125.998C603.396 126.536 600.935 127.007 598.405 127.41C595.875 127.814 593.448 128.184 591.123 128.52C586.406 129.26 582.372 130.403 579.021 131.95C575.739 133.497 573.21 135.514 571.432 138.002C569.723 140.424 568.868 143.315 568.868 146.678C568.868 151.789 570.714 155.69 574.406 158.38C578.167 161.07 582.919 162.415 588.662 162.415Z" fill="white"/>
<path d="M514.732 37.1236V73.4403H415.352V37.1236H514.732ZM436.171 0H486.323V143.35C486.323 146.376 486.801 148.831 487.759 150.714C488.784 152.53 490.254 153.841 492.169 154.648C494.083 155.388 496.374 155.758 499.04 155.758C500.955 155.758 502.972 155.59 505.091 155.254C507.279 154.85 508.92 154.514 510.014 154.245L517.604 189.855C515.21 190.528 511.826 191.368 507.45 192.377C503.143 193.386 497.98 194.025 491.964 194.294C480.203 194.832 470.118 193.487 461.709 190.259C453.367 186.963 446.974 181.852 442.53 174.925C438.154 167.998 436.034 159.289 436.171 148.797V0Z" fill="white"/>
<path d="M408.772 84.4355L362.723 85.6461C362.244 82.4179 360.945 79.5597 358.826 77.0713C356.706 74.5157 353.937 72.5317 350.518 71.1194C347.168 69.6399 343.271 68.9001 338.827 68.9001C333.015 68.9001 328.058 70.0434 323.955 72.33C319.921 74.6166 317.939 77.7102 318.007 81.6109C317.939 84.6373 319.169 87.2602 321.699 89.4795C324.297 91.6988 328.912 93.4811 335.545 94.8261L365.902 100.475C381.628 103.434 393.32 108.344 400.978 115.204C408.704 122.064 412.601 131.143 412.669 142.441C412.601 153.067 409.388 162.314 403.029 170.183C396.739 178.052 388.124 184.172 377.184 188.543C366.244 192.847 353.732 194.999 339.647 194.999C317.152 194.999 299.409 190.46 286.419 181.381C273.496 172.234 266.112 159.994 264.266 144.661L313.802 143.45C314.896 149.099 317.733 153.403 322.314 156.363C326.895 159.322 332.741 160.801 339.852 160.801C346.279 160.801 351.51 159.624 355.544 157.271C359.578 154.917 361.629 151.789 361.697 147.889C361.629 144.392 360.056 141.601 356.98 139.516C353.903 137.364 349.082 135.682 342.519 134.472L315.033 129.327C299.238 126.502 287.478 121.29 279.752 113.691C272.026 106.024 268.197 96.2721 268.265 84.4355C268.197 74.0786 271 65.2348 276.675 57.9042C282.35 50.5064 290.418 44.8571 300.879 40.9565C311.341 37.0558 323.682 35.1055 337.903 35.1055C359.236 35.1055 376.056 39.5105 388.363 48.3207C400.67 57.0636 407.473 69.1018 408.772 84.4355Z" fill="white"/>
<path d="M182.415 194.999C165.938 194.999 151.716 191.805 139.751 185.416C127.854 178.96 118.692 169.78 112.265 157.876C105.906 145.905 102.727 131.681 102.727 115.204C102.727 99.1976 105.94 85.2089 112.367 73.2379C118.794 61.1996 127.854 51.8515 139.545 45.1934C151.237 38.4681 165.014 35.1055 180.877 35.1055C192.09 35.1055 202.346 36.8204 211.645 40.2503C220.944 43.6802 228.978 48.7578 235.746 55.4831C242.515 62.2084 247.78 70.5142 251.541 80.4003C255.301 90.2193 257.181 101.484 257.181 114.195V126.502H120.264V97.8525H210.517C210.448 92.6068 209.184 87.9327 206.722 83.8302C204.261 79.7278 200.876 76.5333 196.569 74.2467C192.33 71.8928 187.441 70.7159 181.903 70.7159C176.296 70.7159 171.271 71.9601 166.826 74.4485C162.382 76.8696 158.861 80.1986 156.263 84.4355C153.665 88.6052 152.297 93.3465 152.16 98.6595V127.814C152.16 134.135 153.425 139.684 155.955 144.459C158.485 149.167 162.074 152.832 166.724 155.455C171.373 158.078 176.911 159.389 183.338 159.389C187.783 159.389 191.817 158.784 195.441 157.573C199.064 156.363 202.175 154.58 204.773 152.227C207.372 149.873 209.32 146.981 210.619 143.551L256.669 144.862C254.754 155.018 250.549 163.861 244.054 171.394C237.627 178.859 229.183 184.676 218.722 188.846C208.26 192.948 196.158 194.999 182.415 194.999Z" fill="white"/>
<path d="M3 192.075V37.1243H51.7158V65.3706H53.3568C56.2285 55.1481 60.912 47.5485 67.4075 42.5718C73.9029 37.5278 81.4581 35.0059 90.0732 35.0059C94.2439 35.0059 98.2096 35.5103 101.97 36.519C105.731 37.5278 109.115 38.9065 112.123 40.6551L97.3549 81.2086C95.167 80.1326 92.8081 79.2247 90.2783 78.4849C87.8168 77.7451 85.0819 77.3752 82.0735 77.3752C76.8771 77.3752 72.0568 78.653 67.6126 81.2086C63.2367 83.7643 59.7497 87.3287 57.1515 91.9019C54.5533 96.4078 53.2201 101.754 53.1517 107.942V192.075H3Z" fill="white"/>
</svg>
